<svg xmlns="http://www.w3.org/2000/svg" viewBox="0 0 512 512">
  <defs>
    <linearGradient id="g" x1="0" y1="0" x2="1" y2="1">
      <stop offset="0" stop-color="#0ea5e9"/>
      <stop offset="1" stop-color="#2563eb"/>
    </linearGradient>
  </defs>
  <rect width="512" height="512" rx="120" fill="url(#g)"/>
  <path d="M156 354V158c0-14 12-26 26-26h148c14 0 26 12 26 26v196c0 14-12 26-26 26H182c-14 0-26-12-26-26z" fill="rgba(255,255,255,0.18)"/>
  <path d="M196 176h120c10 0 18 8 18 18v124c0 10-8 18-18 18H196c-10 0-18-8-18-18V194c0-10 8-18 18-18z" fill="#ffffff"/>
  <path d="M220 224h72M220 264h72M220 304h48" stroke="#0f172a" stroke-width="20" stroke-linecap="round" opacity="0.85"/>
</svg>

